# xmcd CD database file
#
# Track frame offsets:
#	150
#	16054
#	39976
#	52872
#	71045
#	85351
#	97090
#	112198
#	131146
#	148161
#
# Disc length: 2110 seconds
#
# Revision: 0
# Processed by: cddbd v1.5.2PL0 Copyright (c) Steve Scherf et al.
# Submitted via: CDex 1.51
#
DISCID=8d083c0a
DTITLE=Daniel Huck and Serge Delaite - Estate
DYEAR=2002
DGENRE=Jazz
TTITLE0=Have you met Miss Jones
TTITLE1=As time goes by
TTITLE2=A foggy day
TTITLE3=Estate
TTITLE4=Blumenstucke
TTITLE5=A nice Guy
TTITLE6=Camensac 89
TTITLE7=I didn't know what time it was
TTITLE8=Just friends
TTITLE9=Autumn
EXTD=YEAR: 2002
EXTT0=
EXTT1=
EXTT2=
EXTT3=
EXTT4=
EXTT5=
EXTT6=
EXTT7=
EXTT8=
EXTT9=
PLAYORDER=
